:SAMPLES-PER-SECOND 30
:FULLY-SPECIFIED
:DEGREES
740
root  29.5871 38.5217 3.86509 -113.312 -84.2206 101.503
RightUpLeg  -1.76889 -2.51855 -15.1046
RightLeg  63.2995 1.42424 2.52362
RightFoot  -1.65895 -0.854804 9.92775
RightToes  3.49245e-010 0 -3.6325e-017
Spine  11.5318 1.39401 -8.1624
Spine1  10.8682 0.0634707 -0.618766
HEad  7.95658 -23.6909 -13.2015
LeftShoulder1  0.0389289 3.37064 -22.8401
LeftArm  -16.6526 3.62984 -34.9849
LeftForeArm  77.7346 -78.747 -100.095
LeftHand  -0.0629289 0.69238 1.47629
RightShoulder  -0.228013 -4.27132 22.3387
RightArm  -11.5145 -5.59861 40.3607
RightForeArm  100.389 74.2812 133.508
RightHand  -0.0492437 -1.72115 -1.2809
LeftUpLeg  -2.54151 6.0836 -7.49549
LeftLeg  17.3413 6.37187 1.424
LeftFoot  -3.45583 -0.448691 6.80428
LeftToes  -2.21735e-009 9.83027e-011 -4.04511e-011
741
root  28.7051 38.7029 4.02447 -108.82 -84.5387 96.895
RightUpLeg  -5.48743 -3.3318 -14.5588
RightLeg  63.8319 0.818323 1.25375
RightFoot  -2.60979 -0.703346 8.96145
RightToes  3.49245e-010 0 -3.6325e-017
Spine  12.0282 1.02458 -8.6635
Spine1  10.0457 -0.58405 0.0548999
HEad  8.22296 -23.0776 -12.6792
LeftShoulder1  0.011659 3.46361 -22.7951
LeftArm  -16.6036 3.66467 -35.209
LeftForeArm  78.8562 -78.7484 -100.689
LeftHand  -0.0390442 1.05077 0.909761
RightShoulder  -0.265099 -4.38446 22.8703
RightArm  -11.5097 -5.95771 39.8696
RightForeArm  101.101 74.1043 134.204
RightHand  -0.0488469 -1.43741 -1.22269
LeftUpLeg  -0.115345 5.48994 -7.40918
LeftLeg  15.8518 6.40586 0.995217
LeftFoot  -4.247 -0.396349 6.80021
LeftToes  -2.21735e-009 9.83027e-011 -4.04511e-011
742
root  27.8315 38.8443 4.1993 -108.033 -84.4555 95.203
RightUpLeg  -7.85375 -3.68254 -14.3645
RightLeg  61.9833 0.521476 0.534033
RightFoot  -3.63131 -0.583261 8.26661
RightToes  3.49245e-010 0 -3.6325e-017
Spine  12.9624 0.985747 -9.10763
Spine1  9.8439 -0.834552 0.723775
HEad  7.8871 -23.0697 -11.6433
LeftShoulder1  0.0422567 3.35796 -22.6148
LeftArm  -16.7238 3.23178 -35.6681
LeftForeArm  78.9225 -78.7951 -100.121
LeftHand  -0.00610198 0.775873 0.0477447
RightShoulder  -0.28001 -4.44466 22.5695
RightArm  -12.2495 -6.36177 40.1941
RightForeArm  102.114 73.7773 135.397
RightHand  -0.0468681 -1.8201 -1.21576
LeftUpLeg  3.24283 5.15122 -7.6342
LeftLeg  14.0859 6.7419 0.720135
LeftFoot  -4.86047 -0.352189 6.72508
LeftToes  -2.21735e-009 9.83027e-011 -4.04511e-011
743
root  26.9794 38.9039 4.3252 -105.364 -84.5705 91.9308
RightUpLeg  -9.78652 -4.39404 -13.8616
RightLeg  57.8623 0.572803 0.525927
RightFoot  -4.64074 -0.51098 8.21564
RightToes  3.49245e-010 0 -3.6325e-017
Spine  13.5441 0.87717 -9.86948
Spine1  9.8857 -1.3515 1.98105
HEad  7.2915 -22.5163 -11.2986
LeftShoulder1  0.0283367 3.40671 -22.838
LeftArm  -16.8136 2.871 -35.804
LeftForeArm  79.3674 -78.768 -100.715
LeftHand  -0.0176204 0.626329 0.347709
RightShoulder  -0.283811 -4.46175 22.4351
RightArm  -12.6185 -6.18202 40.1895
RightForeArm  103.53 73.559 136.276
RightHand  -0.0341132 -1.86546 -0.804746
LeftUpLeg  5.82106 5.38423 -7.52947
LeftLeg  13.1734 6.19132 0.379169
LeftFoot  -5.95455 -0.271499 6.53124
LeftToes  -2.21735e-009 9.83027e-011 -4.04511e-011
744
root  26.1423 38.9487 4.44192 -103.713 -84.5039 90.0135
RightUpLeg  -11.3296 -5.02702 -13.3197
RightLeg  51.6162 0.776449 0.693782
RightFoot  -5.54138 -0.516449 9.40772
RightToes  3.49245e-010 0 -3.6325e-017
Spine  13.9967 0.649449 -9.88195
Spine1  9.68462 -1.53229 2.04634
HEad  6.96902 -22.6371 -10.4682
LeftShoulder1  0.0761588 3.23961 -22.4795
LeftArm  -16.8884 2.67635 -36.0827
LeftForeArm  79.432 -78.7483 -101
LeftHand  -0.0560862 0.917737 1.35356
RightShoulder  -0.322332 -4.57957 22.882
RightArm  -12.8012 -5.78115 39.9269
RightForeArm  103.942 73.3894 136.832
RightHand  -0.0349979 -1.61801 -0.814676
LeftUpLeg  8.00804 5.39975 -7.739
LeftLeg  12.2095 6.32154 0.315642
LeftFoot  -6.8307 -0.220484 6.63999
LeftToes  -2.21735e-009 9.83027e-011 -4.04511e-011
745
root  25.3099 38.9536 4.54311 -102.563 -84.4306 88.7071
RightUpLeg  -12.1985 -5.97702 -12.6523
RightLeg  43.6288 0.916995 0.645381
RightFoot  -5.30925 -0.511002 8.99759
RightToes  3.49245e-010 0 -3.6325e-017
Spine  14.3005 0.476956 -9.73884
Spine1  9.56047 -1.63714 2.12076
HEad  6.81213 -22.5697 -9.918
LeftShoulder1  0.125424 3.0657 -22.2328
LeftArm  -16.9347 2.37699 -36.2322
LeftForeArm  78.0408 -78.7633 -100.046
LeftHand  -0.0652586 1.19874 1.66181
RightShoulder  -0.295437 -4.49096 22.7775
RightArm  -13.2115 -5.78817 39.9167
RightForeArm  104.361 73.2187 137.379
RightHand  -0.0453507 -1.4224 -1.11655
LeftUpLeg  9.88471 5.45703 -7.93025
LeftLeg  11.5522 6.41354 0.310812
LeftFoot  -7.71063 -0.171144 6.85982
LeftToes  -2.21735e-009 9.83027e-011 -4.04511e-011
746
root  24.4507 38.9449 4.61756 -101.777 -84.3907 88.1389
RightUpLeg  -12.5421 -7.24766 -11.8304
RightLeg  34.1876 1.54579 0.858225
RightFoot  -4.89624 -0.527273 8.75258
RightToes  3.49245e-010 0 -3.6325e-017
Spine  13.7638 0.22667 -9.21262
Spine1  10.1906 -1.63936 1.88901
HEad  6.55913 -22.3754 -9.58027
LeftShoulder1  0.133157 3.04049 -22.3542
LeftArm  -17.1238 1.75448 -36.413
LeftForeArm  76.559 -78.831 -98.2612
LeftHand  -0.0610728 0.576957 1.41268
RightShoulder  -0.290082 -4.47922 22.5806
RightArm  -13.6311 -5.54416 40.2091
RightForeArm  105.142 73.107 137.805
RightHand  -0.049875 -1.72003 -1.2954
LeftUpLeg  11.3173 5.58249 -7.99534
LeftLeg  11.1118 6.33561 0.23473
LeftFoot  -8.82636 -0.0983329 6.87687
LeftToes  -2.21735e-009 9.83027e-011 -4.04511e-011
747
root  23.5878 38.8925 4.67884 -99.9697 -83.7598 86.5284
RightUpLeg  -12.2923 -8.70862 -11.658
RightLeg  24.2348 3.09197 1.30702
RightFoot  -4.97613 -0.542067 9.12097
RightToes  3.49245e-010 0 -3.6325e-017
Spine  13.4259 0.150267 -9.21109
Spine1  10.5561 -1.55238 1.66848
HEad  6.4524 -22.4304 -9.30573
LeftShoulder1  0.156831 2.95992 -22.5323
LeftArm  -17.1087 1.21373 -36.5668
LeftForeArm  75.7028 -78.8601 -97.3027
LeftHand  -0.0644444 0.839583 1.52392
RightShoulder  -0.288212 -4.47838 22.3985
RightArm  -13.8552 -5.453 40.2157
RightForeArm  104.755 73.014 138.002
RightHand  -0.0482508 -2.11725 -1.27757
LeftUpLeg  12.7525 5.3162 -8.86181
LeftLeg  10.6722 6.57968 0.303405
LeftFoot  -9.83173 -0.0289089 6.70926
LeftToes  -2.21735e-009 9.83027e-011 -4.04511e-011
748
root  22.6986 38.8353 4.7286 -98.8911 -83.1132 85.9337
RightUpLeg  -12.0879 -10.425 -11.3565
RightLeg  14.7337 4.64363 1.20589
RightFoot  -5.11232 -0.536582 9.20135
RightToes  3.49245e-010 0 -3.6325e-017
Spine  12.9392 -0.0554998 -9.27917
Spine1  10.8813 -1.65335 1.7079
HEad  6.44507 -22.1417 -9.0899
LeftShoulder1  0.0848056 3.21607 -23.0869
LeftArm  -17.2738 0.78121 -36.0761
LeftForeArm  76.1137 -78.8424 -97.8233
LeftHand  -0.0299465 1.34688 0.676247
RightShoulder  -0.237363 -4.31107 22.0842
RightArm  -13.8685 -5.27166 40.3424
RightForeArm  104.422 72.9976 137.996
RightHand  -0.0712487 -1.4273 -1.8609
LeftUpLeg  14.2285 5.20742 -9.58413
LeftLeg  9.61745 6.77743 0.041591
LeftFoot  -10.687 0.0255204 6.7472
LeftToes  -2.21735e-009 9.83027e-011 -4.04511e-011
749
root  21.767 38.759 4.74206 -98.5899 -82.6262 85.9215
RightUpLeg  -11.6677 -12.1469 -10.8473
RightLeg  6.64048 6.26021 1.02395
RightFoot  -5.20809 -0.496307 8.59283
RightToes  3.49245e-010 0 -3.6325e-017
Spine  12.498 -0.109389 -8.68422
Spine1  11.4715 -1.4371 1.33278
HEad  6.44107 -22.4241 -9.2666
LeftShoulder1  0.0940599 3.18273 -22.9674
LeftArm  -17.2584 0.761604 -36.2634
LeftForeArm  76.2445 -78.8382 -97.9592
LeftHand  -0.0478093 1.24208 1.14089
RightShoulder  -0.232704 -4.30081 21.8554
RightArm  -14.1717 -5.44315 40.3493
RightForeArm  106.092 72.7251 138.963
RightHand  -0.0375786 -1.61163 -0.879015
LeftUpLeg  16.0278 5.24013 -9.99271
LeftLeg  8.52364 6.73521 -0.230327
LeftFoot  -11.6736 0.0889041 6.41622
LeftToes  -2.21735e-009 9.83027e-011 -4.04511e-011
750
root  20.7975 38.6275 4.71762 -96.5433 -81.9889 84.2909
RightUpLeg  -11.3723 -12.0458 -10.8429
RightLeg  0.629416 6.78401 0.703955
RightFoot  -5.79702 -0.483419 9.14303
RightToes  3.49245e-010 0 -3.6325e-017
Spine  12.1408 -0.194816 -8.42984
Spine1  11.816 -1.39232 1.17395
HEad  6.18015 -22.3193 -8.95472
LeftShoulder1  0.0736051 3.25388 -23.1621
LeftArm  -17.086 0.893994 -36.1794
LeftForeArm  76.9509 -78.7931 -99.0207
LeftHand  -0.0789982 0.889087 1.94634
RightShoulder  -0.228582 -4.29078 21.694
RightArm  -14.1777 -5.61537 40.3201
RightForeArm  106.221 72.4887 139.587
RightHand  -0.0626344 -1.08134 -1.5572
LeftUpLeg  17.456 5.1003 -10.6512
LeftLeg  8.00796 6.70968 -0.224361
LeftFoot  -12.8783 0.159982 6.11985
LeftToes  -2.21735e-009 9.83027e-011 -4.04511e-011
751
root  19.7782 38.451 4.66161 -92.8292 -81.6517 80.8467
RightUpLeg  -11.3926 -11.9852 -10.6909
RightLeg  -1.05381 6.52843 0.535721
RightFoot  -5.92245 -0.482081 9.19899
RightToes  3.49245e-010 0 -3.6325e-017
Spine  11.4832 -0.331854 -7.81316
Spine1  12.8403 -1.37699 0.962148
HEad  5.85463 -22.6228 -8.89567
LeftShoulder1  0.122236 3.08444 -22.7793
LeftArm  -17.3264 0.919545 -36.9258
LeftForeArm  75.8186 -78.8658 -97.2898
LeftHand  -0.0535787 0.873108 1.27418
RightShoulder  -0.266562 -4.42503 21.7156
RightArm  -14.4469 -5.21959 40.1282
RightForeArm  106.485 72.4691 139.673
RightHand  -0.0536953 -2.14045 -1.52822
LeftUpLeg  18.807 5.19278 -10.7891
LeftLeg  8.25797 6.16426 -0.0555345
LeftFoot  -14.524 0.243818 5.67954
LeftToes  -2.21735e-009 9.83027e-011 -4.04511e-011
752
root  18.6807 38.234 4.5484 -88.2418 -81.6654 76.5109
RightUpLeg  -11.9495 -11.7676 -10.1581
RightLeg  1.60649 4.49993 0.820415
RightFoot  -4.4155 -0.44924 7.31781
RightToes  3.49245e-010 0 -3.6325e-017
Spine  11.181 -0.609079 -7.12173
Spine1  13.2846 -1.60826 1.12498
HEad  5.2844 -22.3827 -8.50644
LeftShoulder1  0.103864 3.14977 -22.9753
LeftArm  -17.2256 1.38303 -37.0321
LeftForeArm  76.5939 -78.8411 -98.1352
LeftHand  -0.067711 0.839705 1.63426
RightShoulder  -0.258793 -4.39288 21.8611
RightArm  -14.3601 -5.07231 39.768
RightForeArm  106.485 72.3513 139.966
RightHand  -0.0629712 -2.1011 -1.85058
LeftUpLeg  19.9921 5.56905 -10.174
LeftLeg  9.29125 4.99081 0.221916
LeftFoot  -16.6308 0.326219 4.86919
LeftToes  -2.21735e-009 9.83027e-011 -4.04511e-011
